<svg width="24" height="24" viewBox="0 0 24 24" fill="none" xmlns="http://www.w3.org/2000/svg">
<g clip-path="url(#clip0_16_998)">
<path d="M16.3299 13.5C17.1627 12.8455 17.8358 12.0103 18.2983 11.0575C18.7609 10.1047 19.0008 9.05916 18.9999 8H20.9999C21.0009 9.41043 20.67 10.8013 20.0338 12.0601C19.3976 13.3189 18.4741 14.4103 17.3379 15.246L19.8659 19.624C20.1311 20.0834 20.203 20.6293 20.0657 21.1416C19.9284 21.6539 19.5933 22.0908 19.1339 22.356L15.6069 16.248C14.4696 16.7456 13.2413 17.0016 11.9999 17C10.7585 17.0016 9.53025 16.7456 8.39291 16.248L4.86591 22.356C4.40657 22.0908 4.07139 21.6539 3.93411 21.1416C3.79684 20.6293 3.86871 20.0834 4.13391 19.624L9.19691 10.854C8.69188 10.3574 8.32767 9.73574 8.14148 9.05239C7.95529 8.36905 7.95378 7.64852 8.13712 6.9644C8.32045 6.28028 8.68205 5.65707 9.18501 5.1584C9.68796 4.65973 10.3142 4.30347 10.9999 4.126V2H12.9999V4.126C13.6856 4.30347 14.3119 4.65973 14.8148 5.1584C15.3178 5.65707 15.6794 6.28028 15.8627 6.9644C16.046 7.64852 16.0445 8.36905 15.8583 9.05239C15.6722 9.73574 15.3079 10.3574 14.8029 10.854L16.3299 13.5ZM14.5999 14.502L13.0719 11.855C12.3712 12.0495 11.6307 12.0495 10.9299 11.855L9.40191 14.502C10.2059 14.823 11.0819 15 12.0009 15C12.9189 15 13.7959 14.823 14.5999 14.502ZM11.9999 10C12.5303 10 13.0391 9.78929 13.4141 9.41421C13.7892 9.03914 13.9999 8.53043 13.9999 8C13.9999 7.46957 13.7892 6.96086 13.4141 6.58579C13.0391 6.21071 12.5303 6 11.9999 6C11.4695 6 10.9608 6.21071 10.5857 6.58579C10.2106 6.96086 9.99991 7.46957 9.99991 8C9.99991 8.53043 10.2106 9.03914 10.5857 9.41421C10.9608 9.78929 11.4695 10 11.9999 10Z" fill="#09121F"/>
</g>
<defs>
<clipPath id="clip0_16_998">
<rect width="24" height="24" fill="white"/>
</clipPath>
</defs>
</svg>
